<svg xmlns="http://www.w3.org/2000/svg" viewBox="0 0 91.99 169.49"><defs><style>.cls-1{fill:#42b478;}</style></defs><g id="Ebene_2" data-name="Ebene 2"><g id="Ebene_1-2" data-name="Ebene 1"><path id="Scannen" class="cls-1" d="M75.14,0H16.91C7.6,0,0,8.07,0,18V151.51c0,9.9,7.6,18,16.91,18H75.14c9.25,0,16.85-8.08,16.85-18V18C92,8.07,84.39,0,75.14,0ZM7.07,18c0-6,4.42-11,9.84-11H75.14c5.36,0,9.78,4.95,9.78,11v6.78H7.07ZM84.92,151.51c0,6-4.42,10.91-9.78,10.91H16.91c-5.42,0-9.84-4.9-9.84-10.91V31.88H84.92ZM57.12,16.28a2.94,2.94,0,1,1-2.94-2.94A2.94,2.94,0,0,1,57.12,16.28ZM29.5,18.73V13.84a.5.5,0,0,1,.5-.5H45.63a.5.5,0,0,1,.5.5v4.89a.5.5,0,0,1-.5.5H30A.51.51,0,0,1,29.5,18.73ZM30.07,85H23V67.7H39.12v7.07h-9ZM69.3,85H62.23V74.77h-9V67.7H69.3ZM39.12,114H23V96.74h7.07v10.17h9Zm30.18,0H53.19v-7.08h9V96.74H69.3Z"/></g></g></svg>