<svg xmlns="http://www.w3.org/2000/svg" viewBox="0 0 156.66 164.35"><defs><style>.cls-1{fill:#42b478;}</style></defs><g id="Ebene_2" data-name="Ebene 2"><g id="Ebene_1-2" data-name="Ebene 1"><path id="Geschenk" class="cls-1" d="M105.48,37.79a33.05,33.05,0,0,0,9.42-10.15c4.17-7.16,5-15.64,2.25-21.14-1.92-3.72-5.77-6-10.74-6.44C97.26-.6,85.59,4.9,80,12.66A19.82,19.82,0,0,0,78,15.84a19.76,19.76,0,0,0-1.92-3.18C70.48,4.9,58.67-.67,49.59.06c-5,.4-8.82,2.72-10.67,6.44-2.85,5.5-1.93,14,2.25,21.14a33.05,33.05,0,0,0,9.42,10.15H0v35H13.72v91.56H143.21V72.79h13.45v-35ZM48,23.6c-3.12-5.3-3.38-10.81-2-13.46.6-1.26,2-1.92,4.24-2.12.34,0,.67-.07,1-.07,6.3,0,14.65,4.18,18.36,9.35,3.45,4.78,4.31,11.27,4.38,16.25,0,1.32,0,2.58.07,3.71a.83.83,0,0,1-.07.4C57.75,36.2,50.79,28.37,48,23.6ZM74.52,156.4H21.68V72.79H74.52Zm0-91.56H7.89V45.74H74.52Zm7.49-32v-.2c.2-4.84,1.2-10.88,4.38-15.32C90.17,12.13,98.45,8,104.75,8c.4,0,.73.07,1.06.07,2.19.2,3.58.86,4.25,2.12,1.32,2.65,1.06,8.16-2.06,13.46-2.72,4.77-9.74,12.6-26,14.06v-.07A39.74,39.74,0,0,1,82,32.82ZM135.25,156.4H82.48V72.79h52.77Zm13.52-91.56H82.48V45.74h66.29ZM82,37.59q.1-2.09,0-4.77A39.74,39.74,0,0,0,82,37.59Z"/></g></g></svg>