<svg fill="#fff" height="40pt"  viewBox="0 -25 448 448" width="40pt" xmlns="http://www.w3.org/2000/svg"><path d="m104 64.007812h32v-16h-10.398438c60.222657-43.734374 142.070313-42.535156 200.984376 2.953126l9.78125-12.664063c-66.074219-50.957031-158.164063-51.074219-224.367188-.28125v-14.007813h-16v32c0 4.417969 3.582031 8 8 8zm0 0"/><path d="m346.175781 68.695312 11.648438-10.976562c-3.65625-3.871094-7.527344-7.632812-11.503907-11.199219l-10.640624 12c3.632812 3.207031 7.160156 6.640625 10.496093 10.175781zm0 0"/><path d="m352 334.40625h-32v16h10.398438c-60.222657 43.734375-142.070313 42.535156-200.984376-2.949219l-9.78125 12.664063c66.074219 50.953125 158.164063 51.070312 224.367188.277344v14.007812h16v-32c0-4.417969-3.582031-8-8-8zm0 0"/><path d="m109.824219 329.71875-11.648438 10.976562c3.65625 3.871094 7.527344 7.632813 11.503907 11.199219l10.640624-11.960937c-3.632812-3.246094-7.160156-6.679688-10.496093-10.214844zm0 0"/><path d="m96 103.207031c-53.019531 0-96 42.980469-96 96s42.980469 96 96 96 96-42.980469 96-96c-.058594-52.996093-43.003906-95.941406-96-96zm-56 104h-16v-16h16zm72 39.59375v8.40625h-16v-8h-16v8h-16v-8h-16v-16h8v-64h-8v-16h16v-8h16v8h16v-8h16v10.808594c7.503906 3.511719 13.050781 10.1875 15.117188 18.210937 2.070312 8.023438.449218 16.550782-4.421876 23.253907 10.03125 6.136719 15.121094 17.914062 12.722657 29.425781-2.398438 11.511719-11.773438 20.273438-23.417969 21.894531zm56-39.59375h-16v-16h16zm0 0"/><path d="m112 179.207031c0-6.628906-5.371094-12-12-12h-28v24h28c6.628906 0 12-5.371093 12-12zm0 0"/><path d="m108 207.207031h-36v24h36c6.628906 0 12-5.371093 12-12 0-6.628906-5.371094-12-12-12zm0 0"/><path d="m352 103.207031c-53.019531 0-96 42.980469-96 96s42.980469 96 96 96 96-42.980469 96-96c-.058594-52.996093-43.003906-95.941406-96-96zm-48 104h-16v-16h16zm80-24h-16v-5.398437c-.003906-5.851563-4.742188-10.59375-10.59375-10.601563h-10.8125c-5.203125-.007812-9.644531 3.761719-10.476562 8.898438-.828126 5.136719 2.191406 10.117187 7.128906 11.75l22.570312 7.519531c11.910156 3.933594 19.433594 15.679688 18.027344 28.144531-1.40625 12.46875-11.355469 22.242188-23.84375 23.421875v8.265625h-16v-8.265625c-13.578125-1.304687-23.957031-12.691406-24-26.335937v-5.398438h16v5.398438c.003906 5.851562 4.742188 10.59375 10.59375 10.601562h10.8125c5.203125.007813 9.644531-3.761719 10.476562-8.898437.828126-5.136719-2.191406-10.117188-7.128906-11.75l-22.570312-7.519532c-11.910156-3.933593-19.433594-15.679687-18.027344-28.144531 1.40625-12.464843 11.355469-22.242187 23.84375-23.421875v-8.265625h16v8.265625c13.578125 1.304688 23.957031 12.691406 24 26.335938zm32 24h-16v-16h16zm0 0"/></svg>
