<?xml version="1.0" encoding="iso-8859-1"?>
<!-- Generator: Adobe Illustrator 19.0.0, SVG Export Plug-In . SVG Version: 6.00 Build 0)  -->
<svg fill="#fff" width="10pt" height="10pt" version="1.1" id="Capa_1" xmlns="http://www.w3.org/2000/svg" xmlns:xlink="http://www.w3.org/1999/xlink" x="0px" y="0px"
	 viewBox="0 0 469.333 469.333" style="enable-background:new 0 0 469.333 469.333;" xml:space="preserve">
<g>
	<g>
		<g>
			<path d="M437.333,234.667h-74.667c-35.292,0-64,28.708-64,64s28.708,64,64,64h74.667c17.646,0,32-14.354,32-32v-64
				C469.333,249.021,454.979,234.667,437.333,234.667z M362.667,320c-11.76,0-21.333-9.573-21.333-21.333
				s9.573-21.333,21.333-21.333c11.76,0,21.333,9.573,21.333,21.333S374.427,320,362.667,320z"/>
			<path d="M437.333,384h-74.667c-47.052,0-85.333-38.371-85.333-85.457c0-47.086,38.281-85.395,85.333-85.395h74.667
				c5.896,0,10.667-4.774,10.667-10.674V170.45c0-22.385-17.35-40.341-39.271-42.106l-31-61.417l-26.26-45.908
				c-11.26-19.65-38.375-27.04-57.917-15.616l-48.219,28.083L79.549,128H42.667C19.135,128,0,146.901,0,170.45v256.186
				c0,23.548,19.135,42.698,42.667,42.698h362.667c23.531,0,42.667-19.149,42.667-42.698v-31.961
				C448,388.774,443.229,384,437.333,384z M304.292,23.854c9.729-5.713,23.094-1.96,28.656,7.776l20.792,36.339
				c-30.917,13.729-67.448,3.93-87.781-21.797L304.292,23.854z M247.375,57.003l0.087-0.073
				C265.553,81.356,293.418,95.729,324,95.729c13.846,0,27.574-3.271,40.331-9.291l0.044,0.128L383.948,128h-262L247.375,57.003z"/>
		</g>
	</g>
</g>
<g>
</g>
<g>
</g>
<g>
</g>
<g>
</g>
<g>
</g>
<g>
</g>
<g>
</g>
<g>
</g>
<g>
</g>
<g>
</g>
<g>
</g>
<g>
</g>
<g>
</g>
<g>
</g>
<g>
</g>
</svg>
