<svg xmlns="http://www.w3.org/2000/svg" viewBox="0 0 283.46 99.09"><defs><style>.cls-1{fill:#1d1d1b;}</style></defs><g id="Ebene_2" data-name="Ebene 2"><g id="Ebene_1-2" data-name="Ebene 1"><path class="cls-1" d="M8.46,85.74A15.52,15.52,0,0,1,2.24,80a16.57,16.57,0,0,1,0-16.64,15.52,15.52,0,0,1,6.22-5.73,19.36,19.36,0,0,1,9-2.06,17.47,17.47,0,0,1,8.64,2.06,12.26,12.26,0,0,1,5.38,5.91l-7,3.78a7.68,7.68,0,0,0-7-4.31,8,8,0,0,0-5.88,2.33,8.56,8.56,0,0,0-2.33,6.34A8.56,8.56,0,0,0,11.52,78a8,8,0,0,0,5.88,2.33,7.59,7.59,0,0,0,7-4.31l7,3.84a12.42,12.42,0,0,1-5.38,5.82,17.17,17.17,0,0,1-8.64,2.1A19.24,19.24,0,0,1,8.46,85.74Z"/><path class="cls-1" d="M60.5,59q3.9,3.47,3.9,10.44V87.34H55.91v-3.9q-2.56,4.36-9.54,4.37a14.75,14.75,0,0,1-6.26-1.23,9.27,9.27,0,0,1-4-3.37,8.77,8.77,0,0,1-1.4-4.89A8.15,8.15,0,0,1,38,71.46Q41.25,69,48.11,69h7.22a5.8,5.8,0,0,0-1.81-4.57,7.91,7.91,0,0,0-5.41-1.6,15.62,15.62,0,0,0-4.91.79,13.07,13.07,0,0,0-4.11,2.12l-3.25-6.34A19.66,19.66,0,0,1,42,56.57a27.5,27.5,0,0,1,7.36-1Q56.61,55.58,60.5,59ZM52.76,80.62a5.89,5.89,0,0,0,2.57-3.17v-3.2H49.1q-5.58,0-5.58,3.67a3.26,3.26,0,0,0,1.36,2.76,6.17,6.17,0,0,0,3.76,1A7.84,7.84,0,0,0,52.76,80.62Z"/><path class="cls-1" d="M75.51,86.85a19.85,19.85,0,0,1-5.93-2.42l3-6.51a19.19,19.19,0,0,0,5.06,2.18,21.33,21.33,0,0,0,5.82.84q5.76,0,5.76-2.85a2,2,0,0,0-1.57-1.92,23,23,0,0,0-4.83-1,46,46,0,0,1-6.34-1.34,9.75,9.75,0,0,1-4.33-2.67,7.57,7.57,0,0,1-1.83-5.47,8.61,8.61,0,0,1,1.71-5.27,11.05,11.05,0,0,1,5-3.57,21.23,21.23,0,0,1,7.77-1.28,30.74,30.74,0,0,1,6.6.72,18.55,18.55,0,0,1,5.44,2l-3,6.46a18.1,18.1,0,0,0-9-2.33,9.07,9.07,0,0,0-4.36.82A2.39,2.39,0,0,0,79,65.35a2.09,2.09,0,0,0,1.57,2,28.84,28.84,0,0,0,5,1.1,53.08,53.08,0,0,1,6.28,1.37,9.45,9.45,0,0,1,4.25,2.65,7.51,7.51,0,0,1,1.8,5.35A8.25,8.25,0,0,1,96.16,83a11.1,11.1,0,0,1-5.09,3.51,22.5,22.5,0,0,1-7.94,1.26A30.43,30.43,0,0,1,75.51,86.85Z"/><path class="cls-1" d="M131.91,59.07c2.39,2.32,3.58,5.78,3.58,10.35V87.34h-9.08V70.82q0-3.72-1.62-5.56a6,6,0,0,0-4.72-1.83,7.21,7.21,0,0,0-5.46,2.12c-1.36,1.42-2,3.52-2,6.32V87.34h-9.08V44.17h9.08V59.3a12.12,12.12,0,0,1,4.36-2.76,15.81,15.81,0,0,1,5.59-1A12.86,12.86,0,0,1,131.91,59.07Z"/><path class="cls-1" d="M163.88,85.83a9.31,9.31,0,0,1-3.29,1.48,16.62,16.62,0,0,1-4.1.5q-5.58,0-8.64-2.85c-2-1.9-3-4.7-3-8.38V63.72H140v-7h4.83V49.12h9.07v7.62h7.8v7h-7.8V76.46a4.28,4.28,0,0,0,1,3.06,3.8,3.8,0,0,0,2.88,1.07,5.83,5.83,0,0,0,3.67-1.16Z"/><path class="cls-1" d="M192.79,59q3.9,3.47,3.9,10.44V87.34H188.2v-3.9q-2.56,4.36-9.55,4.37a14.7,14.7,0,0,1-6.25-1.23,9.27,9.27,0,0,1-4-3.37,8.77,8.77,0,0,1-1.4-4.89,8.15,8.15,0,0,1,3.29-6.86Q173.54,69,180.4,69h7.21a5.8,5.8,0,0,0-1.8-4.57,7.93,7.93,0,0,0-5.41-1.6,15.63,15.63,0,0,0-4.92.79,13,13,0,0,0-4.1,2.12l-3.25-6.34a19.66,19.66,0,0,1,6.13-2.79,27.5,27.5,0,0,1,7.36-1Q188.9,55.58,192.79,59Zm-7.74,21.58a5.83,5.83,0,0,0,2.56-3.17v-3.2h-6.22q-5.59,0-5.59,3.67a3.27,3.27,0,0,0,1.37,2.76,6.14,6.14,0,0,0,3.75,1A7.88,7.88,0,0,0,185.05,80.62Z"/><path class="cls-1" d="M235.16,56V82.1q0,8.61-4.48,12.8c-3,2.8-7.35,4.19-13.08,4.19A33.11,33.11,0,0,1,209,98a18.94,18.94,0,0,1-6.74-3.2l3.6-6.52a14.79,14.79,0,0,0,5,2.59,19.86,19.86,0,0,0,6.05,1c3.14,0,5.45-.71,6.95-2.12s2.24-3.56,2.24-6.43V81.93q-3.56,3.9-9.89,3.9a16.59,16.59,0,0,1-7.88-1.89,14.42,14.42,0,0,1-5.68-5.33,16,16,0,0,1,0-15.82,14.4,14.4,0,0,1,5.68-5.32,16.59,16.59,0,0,1,7.88-1.89q6.81,0,10.35,4.48V56ZM223.91,76.26a7.88,7.88,0,0,0,0-11.11,9.29,9.29,0,0,0-11.84,0,7.79,7.79,0,0,0,0,11.11A8.48,8.48,0,0,0,218,78.38,8.4,8.4,0,0,0,223.91,76.26Z"/><polygon class="cls-1" points="247.5 61.91 247.5 42.26 232.27 42.26 232.27 12.33 258.81 12.33 258.81 17.83 237.77 17.83 237.77 36.76 253 36.76 253 46.11 260.56 36.58 277.95 36.58 277.95 24.65 283.46 24.65 283.46 42.09 263.22 42.09 247.5 61.91"/><polygon class="cls-1" points="283.46 6.82 283.46 12.33 276.64 12.33 276.64 19.15 271.14 19.15 271.14 12.33 264.31 12.33 264.31 6.82 271.14 6.82 271.14 0 276.64 0 276.64 6.82 283.46 6.82"/></g></g></svg>