<svg xmlns="http://www.w3.org/2000/svg" viewBox="0 0 283.44 110.01"><defs><style>.cls-1{fill:#1b365e;}.cls-2{fill:#42b478;}</style></defs><g id="Ebene_2" data-name="Ebene 2"><g id="Ebene_1-2" data-name="Ebene 1"><path class="cls-1" d="M9.11,109.87l0-6.57-3.26,5.44H5l-3.25-5.36v6.49H0V100H1.51l3.94,6.57L9.32,100h1.52v9.91Z"/><path class="cls-1" d="M23.09,108.33v1.54H15.65V100h7.24v1.54h-5.4v2.58h4.79v1.51H17.49v2.74Z"/><path class="cls-1" d="M36.08,100v9.91H34.24v-4.25H29.11v4.25H27.27V100h1.84v4.09h5.13V100Z"/><path class="cls-1" d="M47.35,109.87l-2-2.9H42.7v2.89H40.86V100h4.08a5.49,5.49,0,0,1,2.24.42,3.24,3.24,0,0,1,1.47,1.22,3.42,3.42,0,0,1,.51,1.89,3.38,3.38,0,0,1-.54,1.92,3.24,3.24,0,0,1-1.57,1.2l2.28,3.26ZM46.68,102a2.83,2.83,0,0,0-1.83-.5H42.7v4h2.15a2.83,2.83,0,0,0,1.83-.52,2,2,0,0,0,0-2.93Z"/><path class="cls-1" d="M67.7,105.62a2.44,2.44,0,0,1,.49,1.56,2.3,2.3,0,0,1-1,2,5,5,0,0,1-2.89.7H59.38V100H64a4.49,4.49,0,0,1,2.71.69,2.19,2.19,0,0,1,1,1.89,2.57,2.57,0,0,1-.34,1.3,2.42,2.42,0,0,1-.94.88A2.6,2.6,0,0,1,67.7,105.62Zm-6.48-4.22v2.74h2.6a2.63,2.63,0,0,0,1.48-.35,1.26,1.26,0,0,0,0-2,2.63,2.63,0,0,0-1.48-.35ZM66.33,107c0-.95-.71-1.43-2.14-1.43h-3v2.87h3C65.62,108.43,66.33,108,66.33,107Z"/><path class="cls-1" d="M79.72,108.33v1.54H72.28V100h7.24v1.54h-5.4v2.58h4.79v1.51H74.12v2.74Z"/><path class="cls-1" d="M98.24,100,95,109.87H93l-2.45-7.33-2.49,7.33h-2L82.8,100h1.92l2.46,7.53L89.74,100h1.71l2.5,7.57L96.49,100Z"/><path class="cls-1" d="M109.3,108.33v1.54h-7.43V100h7.23v1.54h-5.39v2.58h4.78v1.51h-4.78v2.74Z"/><path class="cls-1" d="M120,109.87l-2-2.9h-2.62v2.89h-1.84V100h4.08a5.49,5.49,0,0,1,2.24.42,3.24,3.24,0,0,1,1.47,1.22,3.42,3.42,0,0,1,.51,1.89,3.38,3.38,0,0,1-.54,1.92,3.24,3.24,0,0,1-1.57,1.2l2.28,3.26ZM119.3,102a2.83,2.83,0,0,0-1.83-.5h-2.15v4h2.15a2.83,2.83,0,0,0,1.83-.52,2,2,0,0,0,0-2.93Z"/><path class="cls-1" d="M127.83,101.52h-3.28V100H133v1.56h-3.29v8.35h-1.84Z"/><path class="cls-1" d="M137.35,108.86a4.53,4.53,0,0,1-1.15-3.31V100h1.85v5.52c0,2,.84,2.92,2.52,2.92s2.5-1,2.5-2.92V100h1.81v5.59a4.52,4.52,0,0,1-1.13,3.31,5,5,0,0,1-6.4,0Z"/><path class="cls-1" d="M158.4,100v9.91h-1.51l-5.47-6.71v6.71h-1.83V100h1.51l5.47,6.71V100Z"/><path class="cls-1" d="M170,104.8h1.75v4a5.66,5.66,0,0,1-1.79.94,7.08,7.08,0,0,1-2.1.32,5.65,5.65,0,0,1-2.73-.66,4.78,4.78,0,0,1-1.91-1.82,5,5,0,0,1-.7-2.62,5.06,5.06,0,0,1,.7-2.62,4.88,4.88,0,0,1,1.92-1.82,5.7,5.7,0,0,1,2.75-.65,5.88,5.88,0,0,1,2.27.41,4.46,4.46,0,0,1,1.72,1.2l-1.17,1.13a3.74,3.74,0,0,0-2.73-1.13,3.87,3.87,0,0,0-1.86.44,3.16,3.16,0,0,0-1.28,1.23,3.75,3.75,0,0,0,0,3.6,3.25,3.25,0,0,0,1.28,1.24,3.63,3.63,0,0,0,1.85.46,4,4,0,0,0,2-.51Z"/><path class="cls-1" d="M183.68,108.33v1.54h-7.43V100h7.24v1.54h-5.4v2.58h4.78v1.51h-4.78v2.74Z"/><path class="cls-1" d="M196.67,100v9.91h-1.51l-5.47-6.71v6.71h-1.83V100h1.51l5.47,6.71V100Z"/><path class="cls-2" d="M8.46,85.73A15.38,15.38,0,0,1,2.24,80a16.55,16.55,0,0,1,0-16.63,15.38,15.38,0,0,1,6.22-5.73,19.24,19.24,0,0,1,9-2.07,17.37,17.37,0,0,1,8.64,2.07,12.2,12.2,0,0,1,5.38,5.9l-7,3.78a7.69,7.69,0,0,0-7-4.3,8,8,0,0,0-5.87,2.33,8.56,8.56,0,0,0-2.33,6.34A8.58,8.58,0,0,0,11.52,78a8,8,0,0,0,5.87,2.32,7.6,7.6,0,0,0,7-4.3l7,3.84a12.51,12.51,0,0,1-5.38,5.82,17.27,17.27,0,0,1-8.64,2.09A19.24,19.24,0,0,1,8.46,85.73Z"/><path class="cls-2" d="M60.5,59q3.9,3.47,3.9,10.45V87.33H55.9V83.44q-2.55,4.35-9.54,4.36a14.86,14.86,0,0,1-6.25-1.22,9.35,9.35,0,0,1-4-3.38,8.76,8.76,0,0,1-1.4-4.88A8.17,8.17,0,0,1,38,71.45Q41.25,69,48.11,69h7.21a5.8,5.8,0,0,0-1.8-4.57,8,8,0,0,0-5.41-1.59,15.91,15.91,0,0,0-4.92.78,13,13,0,0,0-4.1,2.12l-3.26-6.34A19.83,19.83,0,0,1,42,56.56a27.5,27.5,0,0,1,7.36-1Q56.61,55.57,60.5,59ZM52.76,80.62a5.91,5.91,0,0,0,2.56-3.17V74.24H49.1c-3.73,0-5.59,1.23-5.59,3.67a3.27,3.27,0,0,0,1.37,2.76,6.14,6.14,0,0,0,3.75,1A8,8,0,0,0,52.76,80.62Z"/><path class="cls-2" d="M75.51,86.84a19.93,19.93,0,0,1-5.94-2.41l3-6.52a18.9,18.9,0,0,0,5.06,2.18,21.33,21.33,0,0,0,5.82.84c3.84,0,5.75-.94,5.75-2.85a2,2,0,0,0-1.57-1.92,23.62,23.62,0,0,0-4.82-1,47.24,47.24,0,0,1-6.34-1.34,9.89,9.89,0,0,1-4.34-2.68,7.61,7.61,0,0,1-1.83-5.47,8.53,8.53,0,0,1,1.72-5.26,11.09,11.09,0,0,1,5-3.58,21.42,21.42,0,0,1,7.76-1.28,30.22,30.22,0,0,1,6.61.73,18,18,0,0,1,5.43,2l-3,6.45a18.06,18.06,0,0,0-9-2.32,9.2,9.2,0,0,0-4.36.81A2.4,2.4,0,0,0,79,65.35a2.08,2.08,0,0,0,1.57,2,27.38,27.38,0,0,0,5,1.11,53.33,53.33,0,0,1,6.28,1.36A9.48,9.48,0,0,1,96.1,72.5a7.51,7.51,0,0,1,1.8,5.35A8.28,8.28,0,0,1,96.16,83a11.24,11.24,0,0,1-5.09,3.52,22.78,22.78,0,0,1-7.94,1.25A30.37,30.37,0,0,1,75.51,86.84Z"/><path class="cls-2" d="M131.9,59.06q3.58,3.49,3.58,10.36V87.33H126.4V70.81q0-3.72-1.62-5.55a6,6,0,0,0-4.72-1.83,7.19,7.19,0,0,0-5.46,2.12c-1.36,1.41-2,3.52-2,6.31V87.33h-9.08V44.17h9.08V59.3a12,12,0,0,1,4.36-2.77,15.81,15.81,0,0,1,5.59-1A12.9,12.9,0,0,1,131.9,59.06Z"/><path class="cls-1" d="M163.87,85.82a9.22,9.22,0,0,1-3.29,1.48,16.62,16.62,0,0,1-4.1.5c-3.72,0-6.61-1-8.64-2.85s-3.05-4.69-3.05-8.38V63.72H140v-7h4.83V49.12h9.07v7.62h7.8v7h-7.8V76.46a4.26,4.26,0,0,0,1,3.05,3.76,3.76,0,0,0,2.88,1.08,5.81,5.81,0,0,0,3.66-1.17Z"/><path class="cls-1" d="M192.77,59q3.9,3.47,3.9,10.45V87.33h-8.49V83.44q-2.56,4.35-9.54,4.36a14.86,14.86,0,0,1-6.25-1.22,9.38,9.38,0,0,1-4-3.38A8.76,8.76,0,0,1,167,78.32a8.15,8.15,0,0,1,3.29-6.87Q173.51,69,180.39,69h7.21a5.8,5.8,0,0,0-1.8-4.57,8,8,0,0,0-5.41-1.59,15.91,15.91,0,0,0-4.92.78,12.91,12.91,0,0,0-4.1,2.12l-3.26-6.34a19.72,19.72,0,0,1,6.14-2.79,27.45,27.45,0,0,1,7.36-1Q188.89,55.57,192.77,59ZM185,80.62a6,6,0,0,0,2.56-3.17V74.24h-6.22c-3.73,0-5.59,1.23-5.59,3.67a3.27,3.27,0,0,0,1.37,2.76,6.14,6.14,0,0,0,3.75,1A8,8,0,0,0,185,80.62Z"/><path class="cls-1" d="M235.15,56V82.1q0,8.61-4.48,12.8t-13.09,4.18A32.56,32.56,0,0,1,209,98a18.75,18.75,0,0,1-6.75-3.2l3.61-6.52a14.65,14.65,0,0,0,5,2.59,19.9,19.9,0,0,0,6,1q4.71,0,7-2.12t2.24-6.43V81.92q-3.54,3.9-9.89,3.9a16.62,16.62,0,0,1-7.88-1.89,14.31,14.31,0,0,1-5.67-5.32,15.95,15.95,0,0,1,0-15.82,14.33,14.33,0,0,1,5.67-5.33,16.62,16.62,0,0,1,7.88-1.89q6.81,0,10.36,4.48V56ZM223.89,76.25a7.86,7.86,0,0,0,0-11.11A8.38,8.38,0,0,0,218,63a8.48,8.48,0,0,0-5.93,2.12,7.81,7.81,0,0,0,0,11.11A8.44,8.44,0,0,0,218,78.38,8.34,8.34,0,0,0,223.89,76.25Z"/><polygon class="cls-2" points="247.47 61.91 247.47 42.26 232.25 42.26 232.25 12.32 258.79 12.32 258.79 17.83 237.75 17.83 237.75 36.75 252.98 36.75 252.98 46.1 260.54 36.58 277.93 36.58 277.93 24.65 283.44 24.65 283.44 42.09 263.2 42.09 247.47 61.91"/><polygon class="cls-2" points="283.44 6.82 283.44 12.33 276.62 12.33 276.62 19.15 271.11 19.15 271.11 12.33 264.29 12.33 264.29 6.82 271.11 6.82 271.11 0 276.62 0 276.62 6.82 283.44 6.82"/></g></g></svg>